<?xml version="1.0" standalone="no"?>
<!DOCTYPE svg PUBLIC "-//W3C//DTD SVG 20010904//EN"
 "http://www.w3.org/TR/2001/REC-SVG-20010904/DTD/svg10.dtd">
<svg version="1.0" xmlns="http://www.w3.org/2000/svg"
 width="98.000000pt" height="98.000000pt" viewBox="0 0 98.000000 98.000000"
 preserveAspectRatio="xMidYMid meet">
<metadata>
Created by potrace 1.14, written by Peter Selinger 2001-2017
</metadata>
<g transform="translate(0.000000,98.000000) scale(0.100000,-0.100000)"
fill="#000000" stroke="none">
<path d="M292 786 c-42 -54 -52 -140 -26 -241 6 -23 4 -25 -34 -25 -39 0 -39
0 -61 60 -23 61 -44 82 -93 94 -21 5 -30 2 -38 -13 -14 -27 -13 -248 1 -257
16 -10 67 45 75 80 8 40 13 48 25 40 6 -3 6 -10 1 -17 -27 -35 -29 -72 -5
-119 27 -53 47 -68 92 -68 55 0 75 15 100 74 15 38 20 60 13 69 -19 25 -22 69
-7 119 21 74 20 180 -3 208 l-18 23 -22 -27z"/>
<path d="M410 550 c0 -5 7 -10 15 -10 11 0 15 -11 15 -41 0 -24 4 -38 10 -34
6 3 10 22 10 41 0 24 5 34 15 34 8 0 15 5 15 10 0 6 -18 10 -40 10 -22 0 -40
-4 -40 -10z"/>
<path d="M585 550 c3 -5 11 -10 16 -10 6 0 7 5 4 10 -3 6 -11 10 -16 10 -6 0
-7 -4 -4 -10z"/>
<path d="M621 542 c-13 -24 2 -67 25 -76 10 -4 13 5 10 35 -4 51 -20 69 -35
41z"/>
<path d="M732 515 c0 -31 5 -45 14 -45 8 0 13 3 13 8 -3 18 2 32 11 32 6 0 10
-9 10 -20 0 -11 5 -20 10 -20 6 0 10 12 10 26 0 17 -6 28 -20 31 -11 3 -20 12
-20 19 0 8 -7 14 -15 14 -10 0 -14 -12 -13 -45z"/>
<path d="M480 524 c0 -1 5 -15 12 -29 12 -27 24 -32 31 -12 4 10 6 10 6 0 2
-24 29 -13 39 15 l10 27 1 -27 c1 -18 7 -28 16 -28 10 0 14 7 11 23 -3 12 -5
25 -5 30 -2 12 -51 8 -51 -5 0 -8 -3 -9 -8 -3 -6 9 -62 18 -62 9z"/>
<path d="M677 523 c-13 -13 -7 -42 12 -52 18 -10 31 -6 31 11 0 4 -7 8 -15 8
-8 0 -15 5 -15 11 0 6 7 9 15 5 9 -3 15 0 15 9 0 15 -31 21 -43 8z"/>
<path d="M810 516 c0 -8 5 -18 11 -22 6 -3 8 -17 5 -30 -10 -38 12 -28 34 17
22 42 18 68 -5 36 -11 -15 -13 -16 -19 -2 -7 19 -26 20 -26 1z"/>
<path d="M448 433 c-14 -4 -18 -15 -18 -49 0 -48 6 -54 26 -26 12 16 13 16 19
0 12 -31 25 -19 25 22 0 42 -19 60 -52 53z m32 -33 c0 -5 -7 -10 -15 -10 -8 0
-15 5 -15 10 0 6 7 10 15 10 8 0 15 -4 15 -10z"/>
<path d="M605 428 c-3 -7 -4 -29 -2 -48 2 -27 7 -36 23 -38 44 -6 57 54 14 65
-11 3 -18 9 -15 13 3 5 1 11 -5 15 -6 3 -12 0 -15 -7z m45 -52 c0 -3 -4 -8
-10 -11 -5 -3 -10 -1 -10 4 0 6 5 11 10 11 6 0 10 -2 10 -4z"/>
<path d="M682 393 c2 -38 7 -47 24 -49 45 -7 58 52 14 63 -11 3 -20 12 -20 19
0 8 -5 14 -11 14 -6 0 -9 -19 -7 -47z m43 -12 c3 -5 1 -12 -5 -16 -5 -3 -10 1
-10 9 0 18 6 21 15 7z"/>
<path d="M761 390 c0 -27 4 -50 9 -50 6 0 10 22 9 50 -1 28 -5 50 -9 50 -4 0
-8 -22 -9 -50z"/>
<path d="M803 410 c-8 -12 -9 -21 -3 -25 6 -3 10 -15 10 -26 0 -20 24 -26 35
-9 3 6 1 10 -4 10 -15 0 -14 27 1 32 9 3 8 9 -4 21 -21 21 -21 21 -35 -3z"/>
<path d="M531 402 c-17 -6 -13 -49 5 -56 33 -13 44 -6 44 27 0 32 -14 41 -49
29z m29 -32 c0 -5 -2 -10 -4 -10 -3 0 -8 5 -11 10 -3 6 -1 10 4 10 6 0 11 -4
11 -10z"/>
</g>
</svg>
